<svg xmlns="http://www.w3.org/2000/svg" viewBox="0 0 18 18">
  <path d="M17.77,10l-0.279-0.372C17.19,9.22,17.183,8.67,17.48,8.262l0.271-0.375c0.416-0.576,0.223-1.378-0.413-1.709l-0.416-0.219c-0.454-0.237-0.699-0.733-0.614-1.228l0.078-0.456c0.119-0.696-0.409-1.338-1.13-1.367l-0.469-0.018c-0.513-0.022-0.956-0.361-1.097-0.846l-0.13-0.445c-0.201-0.678-0.959-1.028-1.621-0.751L11.508,1.03c-0.472,0.2-1.019,0.08-1.365-0.295L9.831,0.392C9.348-0.136,8.507-0.129,8.035,0.403L7.726,0.75C7.388,1.129,6.841,1.256,6.369,1.063L5.934,0.888c-0.666-0.27-1.421,0.095-1.61,0.776L4.201,2.109C4.067,2.594,3.629,2.94,3.115,2.969L2.647,2.995c-0.718,0.04-1.238,0.689-1.108,1.381l0.086,0.452C1.717,5.324,1.475,5.82,1.029,6.064L0.616,6.286C-0.012,6.629-0.194,7.434,0.23,8.003l0.279,0.372C0.81,8.783,0.817,9.333,0.52,9.742l-0.271,0.375c-0.416,0.576-0.223,1.378,0.413,1.709l0.416,0.219c0.454,0.237,0.699,0.733,0.614,1.228l-0.078,0.456c-0.119,0.696,0.409,1.338,1.13,1.367l0.469,0.018c0.513,0.022,0.956,0.361,1.097,0.846l0.13,0.445c0.201,0.678,0.959,1.028,1.621,0.751l0.431-0.182c0.472-0.2,1.019-0.08,1.365,0.295l0.312,0.343c0.48,0.525,1.32,0.518,1.792-0.015l0.309-0.346c0.338-0.379,0.885-0.507,1.357-0.313l0.435,0.175c0.666,0.27,1.421-0.095,1.61-0.776l0.123-0.445c0.134-0.485,0.573-0.831,1.086-0.86l0.469-0.026c0.718-0.04,1.238-0.689,1.108-1.381l-0.086-0.452c-0.093-0.496,0.149-0.991,0.595-1.236l0.413-0.222C18.012,11.374,18.194,10.569,17.77,10z M11.215,11.99c-0.338,0.401-0.777,0.671-1.287,0.809c-0.223,0.058-0.324,0.175-0.312,0.401c0.011,0.222,0,0.448,0,0.671c0,0.2-0.104,0.306-0.305,0.31c-0.245,0.007-0.491,0.007-0.736,0c-0.216-0.004-0.316-0.124-0.32-0.328c-0.004-0.164-0.004-0.328-0.004-0.488c-0.004-0.361-0.015-0.375-0.368-0.43c-0.454-0.069-0.896-0.171-1.309-0.368c-0.324-0.153-0.357-0.233-0.264-0.569c0.071-0.248,0.138-0.499,0.219-0.744c0.093-0.284,0.171-0.321,0.439-0.186c0.457,0.233,0.945,0.364,1.454,0.426c0.327,0.04,0.651,0.007,0.956-0.124c0.569-0.244,0.658-0.889,0.178-1.276c-0.164-0.131-0.35-0.23-0.543-0.313C8.515,9.567,7.994,9.403,7.526,9.126C6.763,8.677,6.28,8.065,6.336,7.154c0.063-1.028,0.658-1.669,1.618-2.012c0.398-0.142,0.398-0.135,0.402-0.543c0,0.139,0,0.273,0,0.412C8.362,3.88,8.414,3.826,8.727,3.819c0.097-0.004,0.193,0,0.29,0c0.662,0,0.662,0,0.666,0.649c0.004,0.459,0,0.463,0.469,0.532c0.357,0.055,0.699,0.16,1.03,0.303c0.182,0.08,0.253,0.204,0.197,0.394c-0.082,0.281-0.16,0.565-0.253,0.842C11.04,6.8,10.954,6.84,10.694,6.716c-0.517-0.244-1.06-0.346-1.632-0.317C8.913,6.406,8.764,6.428,8.626,6.487C8.132,6.698,8.05,7.234,8.474,7.562c0.212,0.168,0.457,0.288,0.71,0.39c0.439,0.179,0.878,0.346,1.294,0.572C11.791,9.249,12.148,10.879,11.215,11.99z"/>
</svg>
